<svg viewBox="0 0 500 500" fill="none" xmlns="http://www.w3.org/2000/svg">
  <!-- Top Botanical Leaves (Deep Botanical Green #165624) -->
  <path d="M205 210 C195 180, 185 150, 195 125 C205 100, 225 75, 255 45 C230 75, 215 105, 210 135 C205 160, 202 185, 205 210 Z" fill="#165624"/>
  <path d="M175 220 C155 215, 135 220, 118 238 C135 235, 155 230, 172 238 C160 255, 145 285, 140 315 C145 280, 165 250, 182 235 C178 228, 176 223, 175 220 Z" fill="#175825"/>
  <path d="M185 165 C170 145, 145 130, 130 135 C120 148, 125 175, 142 195 C158 210, 178 215, 185 210 Z" fill="#1A612A"/>
  <path d="M210 135 C240 100, 310 75, 375 95 C360 130, 325 175, 275 190 C240 198, 220 180, 210 160 Z" fill="#175825"/>
  <path d="M195 125 C205 90, 235 45, 280 20 C270 50, 255 85, 240 110 C225 125, 210 130, 195 125 Z" fill="#1B662C"/>
  <path d="M180 225 C190 215, 205 210, 220 215 C230 218, 245 228, 255 240 C235 235, 210 232, 195 242 C185 248, 178 255, 175 262 C172 250, 175 235, 180 225 Z" fill="#175825"/>

  <!-- Tomato Circular Swirl Ring (Vivid Tomato Red #E23724 & #D62818) -->
  <path d="M 235 222 C 320 220, 395 280, 398 360 C 400 435, 345 478, 275 480 C 205 482, 145 435, 142 360 C 140 300, 180 248, 235 222 Z" stroke="#E23724" stroke-width="40" stroke-linecap="round"/>
  <path d="M 245 255 C 285 242, 325 252, 350 272 C 320 262, 285 262, 255 275 Z" fill="#E23724"/>
  <path d="M 210 472 C 265 488, 320 478, 362 445 C 310 468, 250 465, 205 448 Z" fill="#C41C0E"/>

  <!-- Three Tomato Seeds (Earthy Cocoa Brown #533221) -->
  <ellipse cx="255" cy="340" rx="15" ry="24" transform="rotate(-25 255 340)" fill="#533221"/>
  <ellipse cx="292" cy="358" rx="15" ry="24" transform="rotate(35 292 358)" fill="#533221"/>
  <ellipse cx="252" cy="378" rx="22" ry="14" transform="rotate(-15 252 378)" fill="#533221"/>
</svg>
